<mxfile host="app.diagrams.net" modified="2023-09-22T11:11:16.591Z" agent="Mozilla/5.0 (Macintosh; Intel Mac OS X 10_15_7) AppleWebKit/537.36 (KHTML, like Gecko) Chrome/116.0.0.0 Safari/537.36" version="21.7.5" etag="UMt8Gv3l3lKrewG3jsYF" type="github">
  <diagram name="第 1 页" id="F_90IXkdeIjDKrKPjnyH">
    <mxGraphModel>
      <root>
        <mxCell id="0" />
        <mxCell id="1" parent="0" />
      </root>
    </mxGraphModel>
  </diagram>
</mxfile>
